<mxfile host="Electron" modified="2024-01-17T06:05:51.012Z" agent="Mozilla/5.0 (Windows NT 10.0; Win64; x64) AppleWebKit/537.36 (KHTML, like Gecko) draw.io/22.1.11 Chrome/114.0.5735.289 Electron/25.9.8 Safari/537.36" etag="jq9IEG6vofqhyoNa7f_K" version="22.1.11" type="device">
  <diagram name="第 1 页" id="BEYnKan1jEQqqP3jIEoc">
    <mxGraphModel dx="1434" dy="844" grid="1" gridSize="10" guides="1" tooltips="1" connect="1" arrows="1" fold="1" page="1" pageScale="1" pageWidth="827" pageHeight="1169" math="0" shadow="0">
      <root>
        <mxCell id="0" />
        <mxCell id="1" parent="0" />
        <mxCell id="JRLlib5Fz0sn0pb7y8yj-34" style="edgeStyle=none;rounded=0;orthogonalLoop=1;jettySize=auto;html=1;entryX=0.25;entryY=0;entryDx=0;entryDy=0;endArrow=block;endFill=0;" edge="1" parent="1" source="JRLlib5Fz0sn0pb7y8yj-1" target="JRLlib5Fz0sn0pb7y8yj-11">
          <mxGeometry relative="1" as="geometry" />
        </mxCell>
        <mxCell id="JRLlib5Fz0sn0pb7y8yj-50" style="edgeStyle=orthogonalEdgeStyle;rounded=0;orthogonalLoop=1;jettySize=auto;html=1;entryX=0.25;entryY=0;entryDx=0;entryDy=0;endArrow=diamondThin;endFill=1;" edge="1" parent="1" source="JRLlib5Fz0sn0pb7y8yj-1" target="JRLlib5Fz0sn0pb7y8yj-15">
          <mxGeometry relative="1" as="geometry">
            <mxPoint x="450" y="230" as="targetPoint" />
            <Array as="points">
              <mxPoint x="80" y="80" />
              <mxPoint x="440" y="80" />
            </Array>
          </mxGeometry>
        </mxCell>
        <mxCell id="JRLlib5Fz0sn0pb7y8yj-1" value="GameStateInfoUI" style="swimlane;fontStyle=1;align=center;verticalAlign=top;childLayout=stackLayout;horizontal=1;startSize=26;horizontalStack=0;resizeParent=1;resizeParentMax=0;resizeLast=0;collapsible=1;marginBottom=0;whiteSpace=wrap;html=1;" vertex="1" parent="1">
          <mxGeometry y="160" width="160" height="34" as="geometry" />
        </mxCell>
        <mxCell id="JRLlib5Fz0sn0pb7y8yj-3" value="" style="line;strokeWidth=1;fillColor=none;align=left;verticalAlign=middle;spacingTop=-1;spacingLeft=3;spacingRight=3;rotatable=0;labelPosition=right;points=[];portConstraint=eastwest;strokeColor=inherit;" vertex="1" parent="JRLlib5Fz0sn0pb7y8yj-1">
          <mxGeometry y="26" width="160" height="8" as="geometry" />
        </mxCell>
        <mxCell id="JRLlib5Fz0sn0pb7y8yj-35" style="edgeStyle=none;rounded=0;orthogonalLoop=1;jettySize=auto;html=1;entryX=0.75;entryY=0;entryDx=0;entryDy=0;endArrow=block;endFill=0;" edge="1" parent="1" source="JRLlib5Fz0sn0pb7y8yj-5" target="JRLlib5Fz0sn0pb7y8yj-11">
          <mxGeometry relative="1" as="geometry" />
        </mxCell>
        <mxCell id="JRLlib5Fz0sn0pb7y8yj-47" style="edgeStyle=orthogonalEdgeStyle;rounded=0;orthogonalLoop=1;jettySize=auto;html=1;entryX=0.25;entryY=0;entryDx=0;entryDy=0;endArrow=diamondThin;endFill=1;" edge="1" parent="1" source="JRLlib5Fz0sn0pb7y8yj-5" target="JRLlib5Fz0sn0pb7y8yj-15">
          <mxGeometry relative="1" as="geometry" />
        </mxCell>
        <mxCell id="JRLlib5Fz0sn0pb7y8yj-5" value="GamePauseUI" style="swimlane;fontStyle=1;align=center;verticalAlign=top;childLayout=stackLayout;horizontal=1;startSize=26;horizontalStack=0;resizeParent=1;resizeParentMax=0;resizeLast=0;collapsible=1;marginBottom=0;whiteSpace=wrap;html=1;" vertex="1" parent="1">
          <mxGeometry x="200" y="160" width="160" height="34" as="geometry" />
        </mxCell>
        <mxCell id="JRLlib5Fz0sn0pb7y8yj-6" value="" style="line;strokeWidth=1;fillColor=none;align=left;verticalAlign=middle;spacingTop=-1;spacingLeft=3;spacingRight=3;rotatable=0;labelPosition=right;points=[];portConstraint=eastwest;strokeColor=inherit;" vertex="1" parent="JRLlib5Fz0sn0pb7y8yj-5">
          <mxGeometry y="26" width="160" height="8" as="geometry" />
        </mxCell>
        <mxCell id="JRLlib5Fz0sn0pb7y8yj-36" style="edgeStyle=none;rounded=0;orthogonalLoop=1;jettySize=auto;html=1;entryX=0.25;entryY=1;entryDx=0;entryDy=0;endArrow=block;endFill=0;" edge="1" parent="1" source="JRLlib5Fz0sn0pb7y8yj-7" target="JRLlib5Fz0sn0pb7y8yj-11">
          <mxGeometry relative="1" as="geometry" />
        </mxCell>
        <mxCell id="JRLlib5Fz0sn0pb7y8yj-49" style="edgeStyle=orthogonalEdgeStyle;rounded=0;orthogonalLoop=1;jettySize=auto;html=1;entryX=0.25;entryY=1;entryDx=0;entryDy=0;endArrow=diamondThin;endFill=1;" edge="1" parent="1" source="JRLlib5Fz0sn0pb7y8yj-7" target="JRLlib5Fz0sn0pb7y8yj-15">
          <mxGeometry relative="1" as="geometry">
            <mxPoint x="480" y="484" as="targetPoint" />
            <Array as="points">
              <mxPoint x="80" y="480" />
              <mxPoint x="440" y="480" />
            </Array>
          </mxGeometry>
        </mxCell>
        <mxCell id="JRLlib5Fz0sn0pb7y8yj-7" value="SoldierInfoUI" style="swimlane;fontStyle=1;align=center;verticalAlign=top;childLayout=stackLayout;horizontal=1;startSize=26;horizontalStack=0;resizeParent=1;resizeParentMax=0;resizeLast=0;collapsible=1;marginBottom=0;whiteSpace=wrap;html=1;" vertex="1" parent="1">
          <mxGeometry y="370" width="160" height="34" as="geometry" />
        </mxCell>
        <mxCell id="JRLlib5Fz0sn0pb7y8yj-8" value="" style="line;strokeWidth=1;fillColor=none;align=left;verticalAlign=middle;spacingTop=-1;spacingLeft=3;spacingRight=3;rotatable=0;labelPosition=right;points=[];portConstraint=eastwest;strokeColor=inherit;" vertex="1" parent="JRLlib5Fz0sn0pb7y8yj-7">
          <mxGeometry y="26" width="160" height="8" as="geometry" />
        </mxCell>
        <mxCell id="JRLlib5Fz0sn0pb7y8yj-37" style="edgeStyle=none;rounded=0;orthogonalLoop=1;jettySize=auto;html=1;entryX=0.75;entryY=1;entryDx=0;entryDy=0;endArrow=block;endFill=0;" edge="1" parent="1" source="JRLlib5Fz0sn0pb7y8yj-9" target="JRLlib5Fz0sn0pb7y8yj-11">
          <mxGeometry relative="1" as="geometry" />
        </mxCell>
        <mxCell id="JRLlib5Fz0sn0pb7y8yj-48" style="edgeStyle=orthogonalEdgeStyle;rounded=0;orthogonalLoop=1;jettySize=auto;html=1;entryX=0.25;entryY=1;entryDx=0;entryDy=0;endArrow=diamondThin;endFill=1;" edge="1" parent="1" source="JRLlib5Fz0sn0pb7y8yj-9" target="JRLlib5Fz0sn0pb7y8yj-15">
          <mxGeometry relative="1" as="geometry" />
        </mxCell>
        <mxCell id="JRLlib5Fz0sn0pb7y8yj-9" value="CampInfoUI" style="swimlane;fontStyle=1;align=center;verticalAlign=top;childLayout=stackLayout;horizontal=1;startSize=26;horizontalStack=0;resizeParent=1;resizeParentMax=0;resizeLast=0;collapsible=1;marginBottom=0;whiteSpace=wrap;html=1;" vertex="1" parent="1">
          <mxGeometry x="200" y="370" width="160" height="34" as="geometry" />
        </mxCell>
        <mxCell id="JRLlib5Fz0sn0pb7y8yj-10" value="" style="line;strokeWidth=1;fillColor=none;align=left;verticalAlign=middle;spacingTop=-1;spacingLeft=3;spacingRight=3;rotatable=0;labelPosition=right;points=[];portConstraint=eastwest;strokeColor=inherit;" vertex="1" parent="JRLlib5Fz0sn0pb7y8yj-9">
          <mxGeometry y="26" width="160" height="8" as="geometry" />
        </mxCell>
        <mxCell id="JRLlib5Fz0sn0pb7y8yj-11" value="UserInterface" style="swimlane;fontStyle=1;align=center;verticalAlign=top;childLayout=stackLayout;horizontal=1;startSize=26;horizontalStack=0;resizeParent=1;resizeParentMax=0;resizeLast=0;collapsible=1;marginBottom=0;whiteSpace=wrap;html=1;" vertex="1" parent="1">
          <mxGeometry x="120" y="270" width="160" height="34" as="geometry" />
        </mxCell>
        <mxCell id="JRLlib5Fz0sn0pb7y8yj-13" value="" style="line;strokeWidth=1;fillColor=none;align=left;verticalAlign=middle;spacingTop=-1;spacingLeft=3;spacingRight=3;rotatable=0;labelPosition=right;points=[];portConstraint=eastwest;strokeColor=inherit;" vertex="1" parent="JRLlib5Fz0sn0pb7y8yj-11">
          <mxGeometry y="26" width="160" height="8" as="geometry" />
        </mxCell>
        <mxCell id="JRLlib5Fz0sn0pb7y8yj-45" style="edgeStyle=none;rounded=0;orthogonalLoop=1;jettySize=auto;html=1;endArrow=diamondThin;endFill=0;" edge="1" parent="1" source="JRLlib5Fz0sn0pb7y8yj-15" target="JRLlib5Fz0sn0pb7y8yj-25">
          <mxGeometry relative="1" as="geometry" />
        </mxCell>
        <mxCell id="JRLlib5Fz0sn0pb7y8yj-46" style="edgeStyle=none;rounded=0;orthogonalLoop=1;jettySize=auto;html=1;entryX=1;entryY=0.5;entryDx=0;entryDy=0;endArrow=diamondThin;endFill=0;" edge="1" parent="1" source="JRLlib5Fz0sn0pb7y8yj-15" target="JRLlib5Fz0sn0pb7y8yj-11">
          <mxGeometry relative="1" as="geometry" />
        </mxCell>
        <mxCell id="JRLlib5Fz0sn0pb7y8yj-15" value="PBaseDefenseGame" style="swimlane;fontStyle=1;align=center;verticalAlign=top;childLayout=stackLayout;horizontal=1;startSize=26;horizontalStack=0;resizeParent=1;resizeParentMax=0;resizeLast=0;collapsible=1;marginBottom=0;whiteSpace=wrap;html=1;" vertex="1" parent="1">
          <mxGeometry x="400" y="270" width="160" height="34" as="geometry" />
        </mxCell>
        <mxCell id="JRLlib5Fz0sn0pb7y8yj-16" value="" style="line;strokeWidth=1;fillColor=none;align=left;verticalAlign=middle;spacingTop=-1;spacingLeft=3;spacingRight=3;rotatable=0;labelPosition=right;points=[];portConstraint=eastwest;strokeColor=inherit;" vertex="1" parent="JRLlib5Fz0sn0pb7y8yj-15">
          <mxGeometry y="26" width="160" height="8" as="geometry" />
        </mxCell>
        <mxCell id="JRLlib5Fz0sn0pb7y8yj-38" style="edgeStyle=none;rounded=0;orthogonalLoop=1;jettySize=auto;html=1;endArrow=block;endFill=0;" edge="1" parent="1" source="JRLlib5Fz0sn0pb7y8yj-17" target="JRLlib5Fz0sn0pb7y8yj-25">
          <mxGeometry relative="1" as="geometry" />
        </mxCell>
        <mxCell id="JRLlib5Fz0sn0pb7y8yj-52" style="edgeStyle=orthogonalEdgeStyle;rounded=0;orthogonalLoop=1;jettySize=auto;html=1;entryX=0.75;entryY=0;entryDx=0;entryDy=0;endArrow=diamondThin;endFill=1;" edge="1" parent="1" source="JRLlib5Fz0sn0pb7y8yj-17" target="JRLlib5Fz0sn0pb7y8yj-15">
          <mxGeometry relative="1" as="geometry" />
        </mxCell>
        <mxCell id="JRLlib5Fz0sn0pb7y8yj-17" value="AchievementSystem" style="swimlane;fontStyle=1;align=center;verticalAlign=top;childLayout=stackLayout;horizontal=1;startSize=26;horizontalStack=0;resizeParent=1;resizeParentMax=0;resizeLast=0;collapsible=1;marginBottom=0;whiteSpace=wrap;html=1;" vertex="1" parent="1">
          <mxGeometry x="600" y="160" width="160" height="34" as="geometry" />
        </mxCell>
        <mxCell id="JRLlib5Fz0sn0pb7y8yj-18" value="" style="line;strokeWidth=1;fillColor=none;align=left;verticalAlign=middle;spacingTop=-1;spacingLeft=3;spacingRight=3;rotatable=0;labelPosition=right;points=[];portConstraint=eastwest;strokeColor=inherit;" vertex="1" parent="JRLlib5Fz0sn0pb7y8yj-17">
          <mxGeometry y="26" width="160" height="8" as="geometry" />
        </mxCell>
        <mxCell id="JRLlib5Fz0sn0pb7y8yj-39" style="edgeStyle=none;rounded=0;orthogonalLoop=1;jettySize=auto;html=1;endArrow=block;endFill=0;" edge="1" parent="1" source="JRLlib5Fz0sn0pb7y8yj-19" target="JRLlib5Fz0sn0pb7y8yj-25">
          <mxGeometry relative="1" as="geometry" />
        </mxCell>
        <mxCell id="JRLlib5Fz0sn0pb7y8yj-54" style="edgeStyle=orthogonalEdgeStyle;rounded=0;orthogonalLoop=1;jettySize=auto;html=1;entryX=0.75;entryY=0;entryDx=0;entryDy=0;exitX=0.5;exitY=0;exitDx=0;exitDy=0;endArrow=diamondThin;endFill=1;" edge="1" parent="1" source="JRLlib5Fz0sn0pb7y8yj-19" target="JRLlib5Fz0sn0pb7y8yj-15">
          <mxGeometry relative="1" as="geometry">
            <Array as="points">
              <mxPoint x="880" y="80" />
              <mxPoint x="520" y="80" />
            </Array>
          </mxGeometry>
        </mxCell>
        <mxCell id="JRLlib5Fz0sn0pb7y8yj-19" value="APSystem" style="swimlane;fontStyle=1;align=center;verticalAlign=top;childLayout=stackLayout;horizontal=1;startSize=26;horizontalStack=0;resizeParent=1;resizeParentMax=0;resizeLast=0;collapsible=1;marginBottom=0;whiteSpace=wrap;html=1;" vertex="1" parent="1">
          <mxGeometry x="800" y="160" width="160" height="34" as="geometry" />
        </mxCell>
        <mxCell id="JRLlib5Fz0sn0pb7y8yj-20" value="" style="line;strokeWidth=1;fillColor=none;align=left;verticalAlign=middle;spacingTop=-1;spacingLeft=3;spacingRight=3;rotatable=0;labelPosition=right;points=[];portConstraint=eastwest;strokeColor=inherit;" vertex="1" parent="JRLlib5Fz0sn0pb7y8yj-19">
          <mxGeometry y="26" width="160" height="8" as="geometry" />
        </mxCell>
        <mxCell id="JRLlib5Fz0sn0pb7y8yj-40" style="edgeStyle=none;rounded=0;orthogonalLoop=1;jettySize=auto;html=1;endArrow=block;endFill=0;" edge="1" parent="1" source="JRLlib5Fz0sn0pb7y8yj-21">
          <mxGeometry relative="1" as="geometry">
            <mxPoint x="770" y="320" as="targetPoint" />
          </mxGeometry>
        </mxCell>
        <mxCell id="JRLlib5Fz0sn0pb7y8yj-53" style="edgeStyle=orthogonalEdgeStyle;rounded=0;orthogonalLoop=1;jettySize=auto;html=1;entryX=0.75;entryY=1;entryDx=0;entryDy=0;endArrow=diamondThin;endFill=1;" edge="1" parent="1" source="JRLlib5Fz0sn0pb7y8yj-21" target="JRLlib5Fz0sn0pb7y8yj-15">
          <mxGeometry relative="1" as="geometry" />
        </mxCell>
        <mxCell id="JRLlib5Fz0sn0pb7y8yj-21" value="GameEventSystem" style="swimlane;fontStyle=1;align=center;verticalAlign=top;childLayout=stackLayout;horizontal=1;startSize=26;horizontalStack=0;resizeParent=1;resizeParentMax=0;resizeLast=0;collapsible=1;marginBottom=0;whiteSpace=wrap;html=1;" vertex="1" parent="1">
          <mxGeometry x="600" y="400" width="160" height="34" as="geometry" />
        </mxCell>
        <mxCell id="JRLlib5Fz0sn0pb7y8yj-22" value="" style="line;strokeWidth=1;fillColor=none;align=left;verticalAlign=middle;spacingTop=-1;spacingLeft=3;spacingRight=3;rotatable=0;labelPosition=right;points=[];portConstraint=eastwest;strokeColor=inherit;" vertex="1" parent="JRLlib5Fz0sn0pb7y8yj-21">
          <mxGeometry y="26" width="160" height="8" as="geometry" />
        </mxCell>
        <mxCell id="JRLlib5Fz0sn0pb7y8yj-41" style="edgeStyle=none;rounded=0;orthogonalLoop=1;jettySize=auto;html=1;entryX=0.75;entryY=1;entryDx=0;entryDy=0;endArrow=block;endFill=0;" edge="1" parent="1" source="JRLlib5Fz0sn0pb7y8yj-23" target="JRLlib5Fz0sn0pb7y8yj-25">
          <mxGeometry relative="1" as="geometry" />
        </mxCell>
        <mxCell id="JRLlib5Fz0sn0pb7y8yj-57" style="edgeStyle=orthogonalEdgeStyle;rounded=0;orthogonalLoop=1;jettySize=auto;html=1;entryX=0.75;entryY=1;entryDx=0;entryDy=0;endArrow=diamondThin;endFill=1;" edge="1" parent="1" source="JRLlib5Fz0sn0pb7y8yj-23" target="JRLlib5Fz0sn0pb7y8yj-15">
          <mxGeometry relative="1" as="geometry">
            <Array as="points">
              <mxPoint x="880" y="460" />
              <mxPoint x="520" y="460" />
            </Array>
          </mxGeometry>
        </mxCell>
        <mxCell id="JRLlib5Fz0sn0pb7y8yj-23" value="CampSystem" style="swimlane;fontStyle=1;align=center;verticalAlign=top;childLayout=stackLayout;horizontal=1;startSize=26;horizontalStack=0;resizeParent=1;resizeParentMax=0;resizeLast=0;collapsible=1;marginBottom=0;whiteSpace=wrap;html=1;" vertex="1" parent="1">
          <mxGeometry x="800" y="400" width="160" height="34" as="geometry" />
        </mxCell>
        <mxCell id="JRLlib5Fz0sn0pb7y8yj-24" value="" style="line;strokeWidth=1;fillColor=none;align=left;verticalAlign=middle;spacingTop=-1;spacingLeft=3;spacingRight=3;rotatable=0;labelPosition=right;points=[];portConstraint=eastwest;strokeColor=inherit;" vertex="1" parent="JRLlib5Fz0sn0pb7y8yj-23">
          <mxGeometry y="26" width="160" height="8" as="geometry" />
        </mxCell>
        <mxCell id="JRLlib5Fz0sn0pb7y8yj-25" value="IGameSystem" style="swimlane;fontStyle=1;align=center;verticalAlign=top;childLayout=stackLayout;horizontal=1;startSize=26;horizontalStack=0;resizeParent=1;resizeParentMax=0;resizeLast=0;collapsible=1;marginBottom=0;whiteSpace=wrap;html=1;" vertex="1" parent="1">
          <mxGeometry x="720" y="255" width="160" height="64" as="geometry" />
        </mxCell>
        <mxCell id="JRLlib5Fz0sn0pb7y8yj-27" value="-pBaseDefenseGame" style="text;html=1;strokeColor=none;fillColor=none;align=left;verticalAlign=middle;whiteSpace=wrap;rounded=0;spacingRight=4;spacingLeft=4;" vertex="1" parent="JRLlib5Fz0sn0pb7y8yj-25">
          <mxGeometry y="26" width="160" height="30" as="geometry" />
        </mxCell>
        <mxCell id="JRLlib5Fz0sn0pb7y8yj-26" value="" style="line;strokeWidth=1;fillColor=none;align=left;verticalAlign=middle;spacingTop=-1;spacingLeft=3;spacingRight=3;rotatable=0;labelPosition=right;points=[];portConstraint=eastwest;strokeColor=inherit;" vertex="1" parent="JRLlib5Fz0sn0pb7y8yj-25">
          <mxGeometry y="56" width="160" height="8" as="geometry" />
        </mxCell>
        <mxCell id="JRLlib5Fz0sn0pb7y8yj-42" style="edgeStyle=none;rounded=0;orthogonalLoop=1;jettySize=auto;html=1;entryX=1;entryY=0.25;entryDx=0;entryDy=0;endArrow=block;endFill=0;" edge="1" parent="1" source="JRLlib5Fz0sn0pb7y8yj-28" target="JRLlib5Fz0sn0pb7y8yj-25">
          <mxGeometry relative="1" as="geometry" />
        </mxCell>
        <mxCell id="JRLlib5Fz0sn0pb7y8yj-55" style="edgeStyle=orthogonalEdgeStyle;rounded=0;orthogonalLoop=1;jettySize=auto;html=1;entryX=0.75;entryY=0;entryDx=0;entryDy=0;endArrow=diamondThin;endFill=1;" edge="1" parent="1" source="JRLlib5Fz0sn0pb7y8yj-28" target="JRLlib5Fz0sn0pb7y8yj-15">
          <mxGeometry relative="1" as="geometry">
            <Array as="points">
              <mxPoint x="1080" y="80" />
              <mxPoint x="520" y="80" />
            </Array>
          </mxGeometry>
        </mxCell>
        <mxCell id="JRLlib5Fz0sn0pb7y8yj-28" value="CharacterSystem" style="swimlane;fontStyle=1;align=center;verticalAlign=top;childLayout=stackLayout;horizontal=1;startSize=26;horizontalStack=0;resizeParent=1;resizeParentMax=0;resizeLast=0;collapsible=1;marginBottom=0;whiteSpace=wrap;html=1;" vertex="1" parent="1">
          <mxGeometry x="1000" y="240" width="160" height="34" as="geometry" />
        </mxCell>
        <mxCell id="JRLlib5Fz0sn0pb7y8yj-29" value="" style="line;strokeWidth=1;fillColor=none;align=left;verticalAlign=middle;spacingTop=-1;spacingLeft=3;spacingRight=3;rotatable=0;labelPosition=right;points=[];portConstraint=eastwest;strokeColor=inherit;" vertex="1" parent="JRLlib5Fz0sn0pb7y8yj-28">
          <mxGeometry y="26" width="160" height="8" as="geometry" />
        </mxCell>
        <mxCell id="JRLlib5Fz0sn0pb7y8yj-43" style="edgeStyle=none;rounded=0;orthogonalLoop=1;jettySize=auto;html=1;entryX=1;entryY=0.75;entryDx=0;entryDy=0;endArrow=block;endFill=0;" edge="1" parent="1" source="JRLlib5Fz0sn0pb7y8yj-30" target="JRLlib5Fz0sn0pb7y8yj-27">
          <mxGeometry relative="1" as="geometry" />
        </mxCell>
        <mxCell id="JRLlib5Fz0sn0pb7y8yj-56" style="edgeStyle=orthogonalEdgeStyle;rounded=0;orthogonalLoop=1;jettySize=auto;html=1;entryX=0.75;entryY=1;entryDx=0;entryDy=0;endArrow=diamondThin;endFill=1;" edge="1" parent="1" source="JRLlib5Fz0sn0pb7y8yj-30" target="JRLlib5Fz0sn0pb7y8yj-15">
          <mxGeometry relative="1" as="geometry">
            <Array as="points">
              <mxPoint x="1080" y="480" />
              <mxPoint x="520" y="480" />
            </Array>
          </mxGeometry>
        </mxCell>
        <mxCell id="JRLlib5Fz0sn0pb7y8yj-30" value="StageSystem" style="swimlane;fontStyle=1;align=center;verticalAlign=top;childLayout=stackLayout;horizontal=1;startSize=26;horizontalStack=0;resizeParent=1;resizeParentMax=0;resizeLast=0;collapsible=1;marginBottom=0;whiteSpace=wrap;html=1;" vertex="1" parent="1">
          <mxGeometry x="1000" y="311" width="160" height="34" as="geometry" />
        </mxCell>
        <mxCell id="JRLlib5Fz0sn0pb7y8yj-31" value="" style="line;strokeWidth=1;fillColor=none;align=left;verticalAlign=middle;spacingTop=-1;spacingLeft=3;spacingRight=3;rotatable=0;labelPosition=right;points=[];portConstraint=eastwest;strokeColor=inherit;" vertex="1" parent="JRLlib5Fz0sn0pb7y8yj-30">
          <mxGeometry y="26" width="160" height="8" as="geometry" />
        </mxCell>
      </root>
    </mxGraphModel>
  </diagram>
</mxfile>
